<?xml version="1.0" encoding="iso-8859-1"?>
<!-- Generator: Adobe Illustrator 19.0.0, SVG Export Plug-In . SVG Version: 6.00 Build 0)  -->
<svg version="1.1" id="Layer_1" xmlns="http://www.w3.org/2000/svg" xmlns:xlink="http://www.w3.org/1999/xlink" x="0px" y="0px"
	 viewBox="0 0 330 330" style="enable-background:new 0 0 330 330;" xml:space="preserve">
<path id="XMLID_71_" d="M323.954,32.979c-3.804-2.831-8.723-3.696-13.265-2.333l-93.652,28.096l-44.286-26.576
	c-0.011-0.007-0.021-0.015-0.032-0.021l-50-30.009c-0.163-0.098-0.332-0.186-0.498-0.277c-0.059-0.031-0.115-0.064-0.174-0.096
	c-0.199-0.106-0.4-0.205-0.604-0.303c-0.054-0.025-0.107-0.051-0.161-0.075c-0.151-0.069-0.301-0.142-0.453-0.205
	c-0.021-0.009-0.044-0.017-0.065-0.025c-0.382-0.159-0.77-0.299-1.16-0.425c-0.088-0.029-0.177-0.058-0.266-0.084
	c-0.217-0.066-0.435-0.125-0.653-0.181c-0.089-0.023-0.179-0.045-0.269-0.065c-0.111-0.026-0.221-0.057-0.333-0.08
	c-0.042-0.01-0.085-0.015-0.128-0.023c-0.281-0.057-0.563-0.107-0.846-0.148c-0.008,0-0.015-0.001-0.022-0.002
	c-0.087-0.012-0.175-0.019-0.263-0.029c-0.13-0.016-0.26-0.03-0.391-0.043c-0.213-0.021-0.424-0.035-0.637-0.046
	c-0.091-0.005-0.181-0.009-0.271-0.013c-0.104-0.004-0.207-0.012-0.311-0.014c-0.068-0.001-0.139,0.002-0.207,0.002
	c-0.382,0-0.764,0.018-1.144,0.047c-0.115,0.008-0.23,0.018-0.346,0.029c-0.216,0.021-0.431,0.048-0.646,0.079
	c-0.067,0.01-0.135,0.021-0.202,0.03c-0.158,0.025-0.317,0.047-0.476,0.077c-0.018,0.003-0.035,0.009-0.054,0.012
	c-0.453,0.088-0.901,0.202-1.347,0.332c-0.035,0.01-0.07,0.015-0.104,0.025l-100,29.995C4.346,32.532,0,38.372,0,44.996v240
	c0,4.741,2.242,9.204,6.046,12.034c2.619,1.949,5.767,2.966,8.955,2.966c1.442,0,2.894-0.208,4.309-0.633l93.653-28.096
	l94.319,56.591c0.203,0.122,0.41,0.23,0.616,0.342c0.087,0.047,0.171,0.099,0.259,0.144c0.34,0.174,0.682,0.334,1.028,0.48
	c0.026,0.011,0.054,0.02,0.081,0.031c0.32,0.133,0.643,0.254,0.969,0.363c0.084,0.028,0.171,0.052,0.256,0.079
	c0.27,0.085,0.541,0.164,0.813,0.233c0.112,0.028,0.225,0.054,0.338,0.08c0.248,0.057,0.497,0.107,0.747,0.152
	c0.128,0.022,0.257,0.045,0.386,0.064c0.242,0.036,0.483,0.064,0.726,0.088c0.134,0.014,0.266,0.029,0.399,0.04
	c0.291,0.021,0.581,0.03,0.871,0.035c0.074,0.001,0.148,0.009,0.223,0.009c0.17,0,0.342-0.013,0.514-0.019
	c0.154-0.005,0.309-0.007,0.463-0.017c0.175-0.012,0.35-0.032,0.524-0.051c0.166-0.016,0.331-0.031,0.497-0.054
	c0.162-0.021,0.324-0.05,0.486-0.077c0.184-0.031,0.366-0.064,0.549-0.102c0.146-0.029,0.292-0.063,0.438-0.098
	c0.206-0.049,0.41-0.103,0.613-0.16c0.077-0.022,0.154-0.037,0.232-0.061l100-30c6.344-1.903,10.69-7.743,10.69-14.367V45.013
	C330,40.272,327.758,35.809,323.954,32.979z"/>
<g>
</g>
<g>
</g>
<g>
</g>
<g>
</g>
<g>
</g>
<g>
</g>
<g>
</g>
<g>
</g>
<g>
</g>
<g>
</g>
<g>
</g>
<g>
</g>
<g>
</g>
<g>
</g>
<g>
</g>
</svg>
